<?xml version="1.0" encoding="utf-8"?>
<!-- Generator: Adobe Illustrator 24.2.0, SVG Export Plug-In . SVG Version: 6.00 Build 0)  -->
<svg version="1.1" id="Layer_1" xmlns="http://www.w3.org/2000/svg" xmlns:xlink="http://www.w3.org/1999/xlink" x="0px" y="0px"
	 viewBox="0 0 100 100" style="enable-background:new 0 0 100 100;" xml:space="preserve">
<style type="text/css">
	.st0{fill:#464353;}
	.st1{opacity:0.1;fill:#F0506E;enable-background:new    ;}
	.st2{fill:#F0506E;}
</style>
<path id="Path3" class="st0" d="M11.24,89.08c114.28-1.98,89.32,18.39,42.81-78.81c-1.53-3.02-6.15-3.02-7.68,0
	c0,0-38.97,72.37-38.97,72.37C5.81,85.45,8.02,89.15,11.24,89.08z M55.17,75.85h-9.92v-9.91h9.92V75.85z M55.17,59.33h-9.92V39.5
	h9.92V59.33z"/>
<path id="Path2" class="st1" d="M11.24,89.08c114.28-1.98,89.32,18.39,42.81-78.81c-1.53-3.02-6.15-3.02-7.68,0
	c0,0-38.97,72.37-38.97,72.37C5.81,85.45,8.02,89.15,11.24,89.08z M55.17,75.85h-9.92v-9.91h9.92V75.85z M55.17,59.33h-9.92V39.5
	h9.92V59.33z"/>
<path id="Path1" class="st2" d="M9.24,91.47c114.28-1.98,89.32,18.39,42.81-78.81c-1.53-3.02-6.15-3.02-7.68,0
	c0,0-38.97,72.37-38.97,72.37C3.81,87.84,6.02,91.53,9.24,91.47z M53.17,78.24h-9.92v-9.91h9.92V78.24z M53.17,61.72h-9.92V41.88
	h9.92V61.72z"/>
</svg>
